# Blender v2.75 (sub 0) OBJ File: ''
# www.blender.org
mtllib CogModel2.mtl
o Cylinder
v 1.948074 -1.448776 -5.256821
v 1.948074 0.551224 -5.256821
v 2.143165 -1.448776 -5.237606
v 2.143165 0.551224 -5.237606
v 2.330758 -1.448776 -5.180700
v 2.330758 0.551224 -5.180700
v 2.503644 -1.448776 -5.088290
v 2.503644 0.551224 -5.088290
v 2.655181 -1.448776 -4.963927
v 2.655181 0.551224 -4.963927
v 2.779544 -1.448776 -4.812391
v 2.779544 0.551224 -4.812391
v 2.871954 -1.448776 -4.639504
v 2.871954 0.551224 -4.639504
v 2.928860 -1.448776 -4.451911
v 2.928860 0.551224 -4.451911
v 2.948074 -1.448776 -4.256821
v 2.948074 0.551224 -4.256821
v 2.928860 -1.448776 -4.061730
v 2.928860 0.551224 -4.061730
v 2.871954 -1.448776 -3.874137
v 2.871954 0.551224 -3.874137
v 2.779544 -1.448776 -3.701251
v 2.779544 0.551224 -3.701251
v 2.655181 -1.448776 -3.549714
v 2.655181 0.551224 -3.549714
v 2.503644 -1.448776 -3.425351
v 2.503644 0.551224 -3.425351
v 2.330758 -1.448776 -3.332941
v 2.330758 0.551224 -3.332941
v 2.143164 -1.448776 -3.276035
v 2.143164 0.551224 -3.276035
v 1.948074 -1.448776 -3.256821
v 1.948074 0.551224 -3.256821
v 1.752984 -1.448776 -3.276036
v 1.752984 0.551224 -3.276036
v 1.565390 -1.448776 -3.332941
v 1.565390 0.551224 -3.332941
v 1.392504 -1.448776 -3.425351
v 1.392504 0.551224 -3.425351
v 1.240967 -1.448776 -3.549714
v 1.240967 0.551224 -3.549714
v 1.116604 -1.448776 -3.701251
v 1.116604 0.551224 -3.701251
v 1.024194 -1.448776 -3.874138
v 1.024194 0.551224 -3.874138
v 0.967289 -1.448776 -4.061731
v 0.967289 0.551224 -4.061731
v 0.948074 -1.448776 -4.256822
v 0.948074 0.551224 -4.256822
v 0.967289 -1.448776 -4.451912
v 0.967289 0.551224 -4.451912
v 1.024195 -1.448776 -4.639505
v 1.024195 0.551224 -4.639505
v 1.116605 -1.448776 -4.812392
v 1.116605 0.551224 -4.812392
v 1.240968 -1.448776 -4.963928
v 1.240968 0.551224 -4.963928
v 1.392505 -1.448776 -5.088291
v 1.392505 0.551224 -5.088291
v 1.565392 -1.448776 -5.180701
v 1.565392 0.551224 -5.180701
v 1.752985 -1.448776 -5.237606
v 1.752985 0.551224 -5.237606
vn 0.098000 0.000000 -0.995200
vn 0.290300 0.000000 -0.956900
vn 0.471400 0.000000 -0.881900
vn 0.634400 0.000000 -0.773000
vn 0.773000 0.000000 -0.634400
vn 0.881900 0.000000 -0.471400
vn 0.956900 0.000000 -0.290300
vn 0.995200 0.000000 -0.098000
vn 0.995200 0.000000 0.098000
vn 0.956900 0.000000 0.290300
vn 0.881900 0.000000 0.471400
vn 0.773000 0.000000 0.634400
vn 0.634400 0.000000 0.773000
vn 0.471400 0.000000 0.881900
vn 0.290300 0.000000 0.956900
vn 0.098000 0.000000 0.995200
vn -0.098000 0.000000 0.995200
vn -0.290300 0.000000 0.956900
vn -0.471400 0.000000 0.881900
vn -0.634400 0.000000 0.773000
vn -0.773000 0.000000 0.634400
vn -0.881900 0.000000 0.471400
vn -0.956900 0.000000 0.290300
vn -0.995200 0.000000 0.098000
vn -0.995200 0.000000 -0.098000
vn -0.956900 0.000000 -0.290300
vn -0.881900 0.000000 -0.471400
vn -0.773000 0.000000 -0.634400
vn -0.634400 0.000000 -0.773000
vn -0.471400 0.000000 -0.881900
vn 0.000000 1.000000 0.000000
vn -0.098000 0.000000 -0.995200
vn -0.290300 0.000000 -0.956900
vn 0.000000 -1.000000 -0.000000
usemtl Material.002
s off
f 1//1 2//1 4//1 3//1
f 3//2 4//2 6//2 5//2
f 5//3 6//3 8//3 7//3
f 7//4 8//4 10//4 9//4
f 9//5 10//5 12//5 11//5
f 11//6 12//6 14//6 13//6
f 13//7 14//7 16//7 15//7
f 15//8 16//8 18//8 17//8
f 17//9 18//9 20//9 19//9
f 19//10 20//10 22//10 21//10
f 21//11 22//11 24//11 23//11
f 23//12 24//12 26//12 25//12
f 25//13 26//13 28//13 27//13
f 27//14 28//14 30//14 29//14
f 29//15 30//15 32//15 31//15
f 31//16 32//16 34//16 33//16
f 33//17 34//17 36//17 35//17
f 35//18 36//18 38//18 37//18
f 37//19 38//19 40//19 39//19
f 39//20 40//20 42//20 41//20
f 41//21 42//21 44//21 43//21
f 43//22 44//22 46//22 45//22
f 45//23 46//23 48//23 47//23
f 47//24 48//24 50//24 49//24
f 49//25 50//25 52//25 51//25
f 51//26 52//26 54//26 53//26
f 53//27 54//27 56//27 55//27
f 55//28 56//28 58//28 57//28
f 57//29 58//29 60//29 59//29
f 59//30 60//30 62//30 61//30
f 4//31 2//31 64//31 62//31 60//31 58//31 56//31 54//31 52//31 50//31 48//31 46//31 44//31 42//31 40//31 38//31 36//31 34//31 32//31 30//31 28//31 26//31 24//31 22//31 20//31 18//31 16//31 14//31 12//31 10//31 8//31 6//31
f 63//32 64//32 2//32 1//32
f 61//33 62//33 64//33 63//33
f 1//34 3//34 5//34 7//34 9//34 11//34 13//34 15//34 17//34 19//34 21//34 23//34 25//34 27//34 29//34 31//34 33//34 35//34 37//34 39//34 41//34 43//34 45//34 47//34 49//34 51//34 53//34 55//34 57//34 59//34 61//34 63//34
